<?xml version="1.0" standalone="no"?>
<!DOCTYPE svg PUBLIC "-//W3C//DTD SVG 20010904//EN"
 "http://www.w3.org/TR/2001/REC-SVG-20010904/DTD/svg10.dtd">
<svg version="1.0" xmlns="http://www.w3.org/2000/svg"
 width="1216.000000pt" height="1216.000000pt" viewBox="0 0 1216.000000 1216.000000"
 preserveAspectRatio="xMidYMid meet">
<metadata>
Created by potrace 1.14, written by Peter Selinger 2001-2017
</metadata>
<g transform="translate(0.000000,1216.000000) scale(0.100000,-0.100000)"
fill="#000000" stroke="none">
<path d="M4408 9564 c-3 -2 -45 -6 -94 -9 -137 -8 -195 -15 -299 -35 -27 -5
-61 -12 -75 -14 -99 -19 -290 -73 -307 -88 -7 -5 -17 -7 -23 -3 -5 3 -10 2
-10 -3 0 -5 -6 -9 -13 -9 -7 0 -39 -12 -71 -26 -32 -15 -65 -27 -72 -27 -8 0
-14 -4 -14 -10 0 -5 -7 -10 -15 -10 -8 0 -53 -20 -99 -44 -336 -176 -630 -448
-835 -773 -18 -29 -34 -53 -36 -53 -2 0 -3 233 -3 518 l1 517 -1219 0 -1219 0
-3 -3422 -2 -3423 1218 0 1219 0 -1 127 c-1 71 2 138 6 150 4 12 4 24 0 27 -9
5 -7 290 2 304 3 6 3 13 -1 15 -9 6 -8 290 1 305 3 6 3 13 -1 15 -9 6 -8 290
1 305 3 6 3 13 -1 15 -9 6 -8 290 1 305 3 6 3 13 -1 15 -13 8 -6 2312 7 2312
1 0 3 17 6 38 6 60 70 241 116 330 42 80 133 210 179 255 43 41 104 92 111 92
4 0 13 6 20 13 17 17 120 77 178 104 101 46 246 87 348 99 130 15 434 4 472
-16 10 -5 19 -7 22 -5 2 3 33 -4 69 -14 240 -69 446 -211 569 -391 35 -52 119
-201 121 -218 1 -4 6 -18 11 -32 12 -30 38 -115 44 -144 25 -113 26 -238 27
-2074 l0 -1932 1217 0 1216 0 0 1912 c1 1724 3 1971 20 2030 3 9 6 25 8 35 16
82 75 237 108 286 11 15 17 27 13 27 -8 0 76 124 87 128 4 2 8 8 8 13 0 16 72
92 140 148 14 11 30 25 37 30 22 19 139 87 193 113 59 28 200 80 200 74 0 -2
21 2 46 10 128 38 451 38 621 -2 124 -29 319 -113 382 -165 9 -8 34 -27 56
-43 70 -51 162 -155 222 -251 43 -69 120 -242 129 -290 2 -11 8 -40 14 -65 5
-25 13 -58 16 -75 4 -16 8 -896 9 -1955 2 -1059 3 -1933 4 -1942 1 -17 66 -18
1214 -18 l1212 0 -1 2108 c-1 1159 -4 2141 -8 2182 -12 149 -32 325 -42 370
-3 14 -8 39 -10 55 -2 17 -6 37 -8 45 -6 29 -17 85 -21 105 -2 11 -4 20 -5 20
-1 0 -4 14 -6 30 -3 17 -7 37 -11 45 -3 8 -7 22 -9 30 -1 8 -8 33 -14 55 -6
22 -12 45 -13 50 -1 6 -5 15 -8 20 -5 8 -19 55 -23 75 -1 5 -31 82 -68 175
-32 81 -146 305 -189 370 -21 33 -42 67 -46 75 -3 8 -9 17 -13 20 -3 3 -17 21
-30 40 -112 163 -311 371 -469 492 -20 15 -43 34 -52 43 -9 8 -22 15 -29 15
-7 0 -10 3 -7 6 4 4 -7 14 -23 23 -16 9 -66 39 -112 67 -118 74 -207 119 -328
168 -100 41 -145 58 -145 56 0 0 -27 9 -60 20 -51 18 -136 42 -195 55 -41 10
-167 37 -185 40 -59 10 -113 18 -205 30 -199 26 -788 26 -830 0 -3 -2 -30 -6
-60 -9 -30 -4 -62 -8 -70 -11 -8 -2 -26 -6 -40 -9 -14 -2 -45 -9 -70 -16 -25
-7 -56 -14 -70 -16 -14 -3 -47 -12 -75 -21 -27 -9 -54 -18 -60 -19 -5 -1 -35
-12 -65 -23 -30 -11 -75 -27 -100 -36 -80 -29 -285 -132 -386 -195 -55 -34
-108 -67 -119 -73 -11 -7 -22 -14 -25 -17 -3 -3 -21 -17 -40 -30 -19 -13 -37
-27 -40 -30 -3 -3 -23 -18 -45 -34 -148 -108 -390 -356 -509 -520 -11 -15 -28
-37 -38 -48 -10 -12 -18 -25 -18 -29 0 -4 -6 -14 -13 -21 -7 -7 -30 -41 -51
-76 l-38 -63 -20 38 c-39 73 -154 261 -168 273 -4 3 -19 23 -36 45 -160 217
-409 443 -645 586 -120 73 -348 184 -367 179 -1 0 -15 6 -30 14 -25 14 -146
56 -217 76 -120 33 -148 40 -177 45 -18 3 -40 8 -48 10 -23 6 -72 16 -100 19
-14 2 -50 7 -80 11 -93 13 -111 14 -260 21 -161 7 -157 7 -185 1 -11 -2 -32
-1 -47 4 -14 4 -28 5 -30 3z"/>
</g>
</svg>
